<svg width="242" height="37" viewBox="0 0 242 37" fill="none" xmlns="http://www.w3.org/2000/svg">
<path d="M8.18115 37H0.710449V0.742188H8.18115V37ZM44.6133 37H37.1426L22.5996 13.1436V37H15.1289V0.742188H22.5996L37.1675 24.6484V0.742188H44.6133V37ZM77.6836 6.79346H66.5771V37H59.1064V6.79346H48.1494V0.742188H77.6836V6.79346ZM95.3892 23.7271H89.4375V37H81.9668V0.742188H95.439C99.7222 0.742188 103.026 1.69678 105.35 3.60596C107.674 5.51514 108.836 8.21289 108.836 11.6992C108.836 14.1729 108.297 16.2397 107.218 17.8999C106.155 19.5435 104.537 20.855 102.362 21.8345L110.206 36.6514V37H102.188L95.3892 23.7271ZM89.4375 17.6758H95.4639C97.3398 17.6758 98.7925 17.2026 99.8218 16.2563C100.851 15.2935 101.366 13.9736 101.366 12.2969C101.366 10.5869 100.876 9.24219 99.8965 8.2627C98.9336 7.2832 97.4478 6.79346 95.439 6.79346H89.4375V17.6758ZM135.009 29.5293H121.91L119.42 37H111.476L124.973 0.742188H131.896L145.468 37H137.524L135.009 29.5293ZM123.927 23.478H132.992L128.435 9.90625L123.927 23.478ZM178.339 37H170.868L156.325 13.1436V37H148.854V0.742188H156.325L170.893 24.6484V0.742188H178.339V37ZM206.678 21.2866H192.334V30.9985H209.168V37H184.863V0.742188H209.118V6.79346H192.334V15.4346H206.678V21.2866ZM241.342 6.79346H230.235V37H222.765V6.79346H211.808V0.742188H241.342V6.79346Z" fill="#004992"/>
</svg>
